<?xml version="1.0" standalone="no"?><!DOCTYPE svg PUBLIC "-//W3C//DTD SVG 1.1//EN" "http://www.w3.org/Graphics/SVG/1.1/DTD/svg11.dtd"><svg id="narrow-thin" title="None" xmlns="http://www.w3.org/2000/svg" xmlns:xlink="http://www.w3.org/1999/xlink" xml:space="preserve" style="fill-rule:nonzero;clip-rule:evenodd;stroke-linejoin:round;stroke-miterlimit:1.41421;" width="100%" name="narrow-thin" viewBox="0.000 0.000 900.000 1200.000" enable-background="0.000 0.000 900.000 1200.000"><path d="M462 30C462 30 462 1154 462 1154C462 1154 670 1184 670 1184C670 1184 670 30 670 30ZM283 806C283 806 222 1130 222 1130C222 1130 414 1185 414 1185C414 1185 473 865 473 865ZM234 775C234 775 437 835 437 835C437 835 466 30 466 30C466 30 279 1 279 1Z"/></svg>