<?xml version="1.0" standalone="no"?><!DOCTYPE svg PUBLIC "-//W3C//DTD SVG 1.1//EN" "http://www.w3.org/Graphics/SVG/1.1/DTD/svg11.dtd"><svg id="wide-bold" title="None" xmlns="http://www.w3.org/2000/svg" xmlns:xlink="http://www.w3.org/1999/xlink" xml:space="preserve" style="fill-rule:nonzero;clip-rule:evenodd;stroke-linejoin:round;stroke-miterlimit:1.41421;" width="100%" name="wide-bold" viewBox="0.000 0.000 2499.000 1200.000" enable-background="0.000 0.000 2499.000 1200.000"><path d="M2321 241C2321 241 1830 732 1830 732C1830 732 1956 900 1956 900C1956 900 2468 388 2468 388ZM1214 569C1214 569 970 726 970 726C970 726 1067 901 1067 901C1067 901 1306 745 1306 745ZM67 378C67 378 157 553 157 553C157 553 470 291 470 291C470 291 370 149 370 149Z"/></svg>