<?xml version="1.0" standalone="no"?><!DOCTYPE svg PUBLIC "-//W3C//DTD SVG 1.1//EN" "http://www.w3.org/Graphics/SVG/1.1/DTD/svg11.dtd"><svg id="wide-thin" title="None" xmlns="http://www.w3.org/2000/svg" xmlns:xlink="http://www.w3.org/1999/xlink" xml:space="preserve" style="fill-rule:nonzero;clip-rule:evenodd;stroke-linejoin:round;stroke-miterlimit:1.41421;" width="100%" name="wide-thin" viewBox="0.000 0.000 2497.000 1200.000" enable-background="0.000 0.000 2497.000 1200.000"><path d="M2320 243C2320 243 1525 1038 1525 1038C1525 1038 1651 1206 1651 1206C1651 1206 2467 390 2467 390ZM1207 563C1207 563 934 749 934 749C934 749 1031 923 1031 923C1031 923 1299 739 1299 739ZM12 529C12 529 113 715 113 715C113 715 703 166 703 166C703 166 591 13 591 13Z"/></svg>