<?xml version="1.0" standalone="no"?><!DOCTYPE svg PUBLIC "-//W3C//DTD SVG 1.1//EN" "http://www.w3.org/Graphics/SVG/1.1/DTD/svg11.dtd"><svg id="narrow-bold" title="None" xmlns="http://www.w3.org/2000/svg" xmlns:xlink="http://www.w3.org/1999/xlink" xml:space="preserve" style="fill-rule:nonzero;clip-rule:evenodd;stroke-linejoin:round;stroke-miterlimit:1.41421;" width="100%" name="narrow-bold" viewBox="0.000 0.000 900.000 1200.000" enable-background="0.000 0.000 900.000 1200.000"><path d="M462 180C462 180 462 874 462 874C462 874 670 904 670 904C670 904 670 180 670 180ZM283 566C283 566 222 850 222 850C222 850 414 905 414 905C414 905 473 625 473 625ZM243 527C243 527 430 587 430 587C430 587 466 180 466 180C466 180 295 151 295 151Z"/></svg>